<svg xmlns="http://www.w3.org/2000/svg" width="16" height="16"><path fill-rule="evenodd" d="M5.11 2.321l.117-.738.319-.602.474-.406.58-.149h5.959l.58.149.473.406.319.602.117.738v7.581l-.117.738-.319.602-.473.406-.58.149H6.6l-.58-.149-.474-.406-.319-.602-.117-.738V2.321m1.49-.948l-.527.278-.218.67v7.581l.218.67.527.278h5.959l.527-.278.218-.67V2.321l-.218-.67-.527-.278H6.6m-2.98 3.79l-.527.277-.218.671v7.581l.218.67.527.278h5.96l.527-.278.218-.67v-.948h.745v.948l-.117.738-.319.602-.474.406-.58.149H3.62l-.58-.149-.474-.406-.319-.602-.117-.738V6.111l.117-.738.319-.602.474-.406.58-.149.597.003v.948l-.597-.003" stroke="#000" stroke-width="0.5"/></svg>
