<svg xmlns="http://www.w3.org/2000/svg" height="16" width="16"><path d="M16 2l-.157-.778-.429-.636-.636-.429L14 0H2l-.778.157-.636.429-.429.636L0 2v8l.157.778.429.636.636.429L2 12h9.586l.383.076.324.217 2.853 2.853.266.141.279-.032.22-.174.089-.288V2M4.473 6.026l-.086.438-.227.313-.687.25-.687-.25-.227-.312-.086-.437.086-.437.227-.312.688-.25.688.25.227.313.086.438m3.96-.063l-.114.585-.301.421-.425.255-.487.088-.485-.081-.421-.252-.294-.424-.104-.598.123-.589.305-.411.426-.238.485-.069.482.095.417.254.291.408.103.557m2.91 1.831l-.743-.142-.527-.403-.311-.578-.098-.666.114-.667.325-.58.535-.407.743-.147.748.167.525.419.306.586.091.666-.12.661-.328.57-.531.393-.73.129"/></svg>
