<svg xmlns="http://www.w3.org/2000/svg" width="16" height="16"><path d="M4.5 3l.087-.652.248-.598.393-.514.522-.401.608-.251L7 .5l.642.084.608.251.522.401.393.514.248.598L9.5 3v9l-.201.75-.549.549L8 13.5l-.75-.201-.549-.549L6.5 12V5l.25-.433h.5L7.5 5v7l.25.433h.5L8.5 12V3l-.201-.75-.549-.549L7 1.5l-.75.201-.549.549L5.5 3v9l.087.652.248.598.393.514.522.401.608.251L8 14.5l.642-.084.608-.251.522-.401.393-.514.248-.598L10.5 12V5l.25-.433h.5L11.5 5v7l-.121.913-.348.837-.551.72-.73.562-.851.352L8 15.5l-.899-.117-.851-.352-.73-.562-.551-.72-.348-.837L4.5 12V3"/></svg>
