<svg xmlns="http://www.w3.org/2000/svg" width="16" height="16"><path fill-rule="evenodd" d="M8 .188l.355.145.148.355V4.03l3.022-2.92.059-.048.49-.054.222.184.084.276v3.247h1.117l.1.01.289.173.114.317v5.558l-.148.355-.355.145H12.38v3.258l-.086.278-.226.184-.291.027-.258-.137-3.016-3.018v3.448l-.147.353-.356.147-.355-.145-.148-.355v-3.448l-3.018 3.019-.258.137-.29-.027-.227-.184-.085-.279v-3.258H2.503l-.355-.145L2 10.773V5.215l.01-.1.173-.286.32-.114H3.62V1.469l.006-.074.302-.387.289-.03.258.132 3.023 2.92V.687l.147-.354.356-.147M4.626 9.333v3.984l2.87-2.872v-4.01l-2.87 2.898m3.877 1.113l2.871 2.871V9.333l-2.87-2.897-.001 4.01m3.733-1.668l.145.35v1.145h.612V5.715H9.201l3.035 3.063m-9.23 1.495h.613V9.13l.145-.35 3.033-3.064h-3.79l-.001 4.557m1.62-5.558H6.76L4.626 2.652v2.063m4.613 0h2.134V2.652L9.239 4.715"/></svg>
