<svg xmlns="http://www.w3.org/2000/svg" width="16" height="16"><path d="M4.78 4.813l.339-.141.339.141 2.531 2.535 2.531-2.535.338-.14.338.14.14.339-.14.339-2.532 2.534 2.532 2.534.14.339-.14.339-.338.14-.338-.14-2.531-2.535-2.531 2.535-.338.14-.338-.14-.14-.339.14-.339 2.531-2.534L4.78 5.491l-.14-.339.14-.339m7.926-3.492l.546.281.226.677v11.492l-.226.677-.546.281H3.445l-.546-.28-.226-.677V2.279l.226-.677.546-.28h9.261M3.445.364L2.854.51l-.501.415-.335.621-.117.733v11.492l.117.733.335.621.501.415.591.146h9.261l.591-.146.501-.415.335-.621.118-.733V2.279l-.118-.733-.335-.621-.501-.415-.591-.146H3.445" stroke="#000" stroke-width=".479"/></svg>
