<svg xmlns="http://www.w3.org/2000/svg" width="16" height="16"><path d="M8 12l2-.536L11.464 10 12 8l-.536-2L10 4.536 8 4l-2 .536L4.536 6 4 8l.536 2L6 11.464 8 12M8 0l.354.146L8.5.5v2l-.25.433h-.5L7.5 2.5v-2l.146-.354L8 0m0 13l.354.146.146.354v2l-.25.433h-.5L7.5 15.5v-2l.146-.354L8 13m8-5l-.146.354-.354.146h-2l-.433-.25v-.5l.433-.25h2l.354.146L16 8M3 8l-.146.354L2.5 8.5h-2l-.433-.25v-.5L.5 7.5h2l.354.146L3 8m10.657-5.657v.707l-1.414 1.415-.707-.001v-.707l1.414-1.414h.707m-9.193 9.193v.707L3.05 13.657l-.701-.006-.006-.701 1.414-1.414h.707m9.193 2.121h-.707l-1.414-1.414.006-.701.701-.006 1.414 1.414v.707M4.464 4.465h-.707L2.343 3.05l-.136-.486.357-.357.486.136 1.414 1.414.147.354-.147.354"/></svg>
